# xmcd
#
# Track frame offsets: 
#        150
#        13362
#        36933
#        57445
#        77834
#        96470
#        114995
#        133825
#        153138
#        171983
#        189943
#        208054
#        226927
#        245366
#        264327
#        282182
#        302142
#        331197
#
# Disc length: 4696 seconds
#
# Revision: 0
# Processed by: cddbd v1.5.1PL0 Copyright (c) Steve Scherf et al.
# Submitted via: ExactAudioCopy v0.95a3
#
DISCID=f9125612
DTITLE=Michels - Das Beste
DYEAR=2003
DGENRE=Rock
TTITLE0=Wie die Würfel Falln
TTITLE1=Bei Mondschein....
TTITLE2=Marie Magie
TTITLE3=Unten im Keller
TTITLE4=Deine Liebe
TTITLE5=Du bist mir nah
TTITLE6=Du, immer nur du
TTITLE7=Ich bin müde
TTITLE8=Jimmy bleib hier
TTITLE9=Die könnte unsre Heimat sein
TTITLE10=Tanz auf dem Vulkan
TTITLE11=Dealer
TTITLE12=Ich leb wohl auf 'ner Insel
TTITLE13=Blues Man
TTITLE14=Helden am Strassenrand
TTITLE15=Wenn ich mich so fühl' wie heute
TTITLE16=Fata Morgana
TTITLE17=Wie ein Laserstrahl
EXTD=
EXTT0=
EXTT1=
EXTT2=
EXTT3=
EXTT4=
EXTT5=
EXTT6=
EXTT7=
EXTT8=
EXTT9=
EXTT10=
EXTT11=
EXTT12=
EXTT13=
EXTT14=
EXTT15=
EXTT16=
EXTT17=
PLAYORDER=
